<svg width="40" height="40" viewBox="0 0 40 40" fill="none" xmlns="http://www.w3.org/2000/svg">
<g filter="url(#filter0_d_46_11)">
<path d="M20 2.88125C24.275 2.88125 24.7813 2.9 26.4625 2.975C28.025 3.04375 28.8688 3.30625 29.4313 3.525C30.175 3.8125 30.7125 4.1625 31.2688 4.71875C31.8313 5.28125 32.175 5.8125 32.4625 6.55625C32.6813 7.11875 32.9438 7.96875 33.0125 9.525C33.0875 11.2125 33.1063 11.7188 33.1063 15.9875C33.1063 20.2625 33.0875 20.7688 33.0125 22.45C32.9438 24.0125 32.6813 24.8563 32.4625 25.4188C32.175 26.1625 31.825 26.7 31.2688 27.2563C30.7063 27.8188 30.175 28.1625 29.4313 28.45C28.8688 28.6688 28.0188 28.9313 26.4625 29C24.775 29.075 24.2688 29.0938 20 29.0938C15.725 29.0938 15.2188 29.075 13.5375 29C11.975 28.9313 11.1313 28.6688 10.5688 28.45C9.825 28.1625 9.2875 27.8125 8.73125 27.2563C8.16875 26.6938 7.825 26.1625 7.5375 25.4188C7.31875 24.8563 7.05625 24.0063 6.9875 22.45C6.9125 20.7625 6.89375 20.2563 6.89375 15.9875C6.89375 11.7125 6.9125 11.2063 6.9875 9.525C7.05625 7.9625 7.31875 7.11875 7.5375 6.55625C7.825 5.8125 8.175 5.275 8.73125 4.71875C9.29375 4.15625 9.825 3.8125 10.5688 3.525C11.1313 3.30625 11.9813 3.04375 13.5375 2.975C15.2188 2.9 15.725 2.88125 20 2.88125ZM20 0C15.6563 0 15.1125 0.01875 13.4063 0.09375C11.7063 0.16875 10.5375 0.44375 9.525 0.8375C8.46875 1.25 7.575 1.79375 6.6875 2.6875C5.79375 3.575 5.25 4.46875 4.8375 5.51875C4.44375 6.5375 4.16875 7.7 4.09375 9.4C4.01875 11.1125 4 11.6562 4 16C4 20.3438 4.01875 20.8875 4.09375 22.5938C4.16875 24.2938 4.44375 25.4625 4.8375 26.475C5.25 27.5313 5.79375 28.425 6.6875 29.3125C7.575 30.2 8.46875 30.75 9.51875 31.1562C10.5375 31.55 11.7 31.825 13.4 31.9C15.1063 31.975 15.65 31.9937 19.9938 31.9937C24.3375 31.9937 24.8813 31.975 26.5875 31.9C28.2875 31.825 29.4563 31.55 30.4688 31.1562C31.5188 30.75 32.4125 30.2 33.3 29.3125C34.1875 28.425 34.7375 27.5313 35.1438 26.4813C35.5375 25.4625 35.8125 24.3 35.8875 22.6C35.9625 20.8938 35.9813 20.35 35.9813 16.0063C35.9813 11.6625 35.9625 11.1188 35.8875 9.4125C35.8125 7.7125 35.5375 6.54375 35.1438 5.53125C34.75 4.46875 34.2063 3.575 33.3125 2.6875C32.425 1.8 31.5313 1.25 30.4813 0.84375C29.4625 0.45 28.3 0.175 26.6 0.1C24.8875 0.01875 24.3438 0 20 0Z" fill="white"/>
<path d="M20 7.78125C15.4625 7.78125 11.7812 11.4625 11.7812 16C11.7812 20.5375 15.4625 24.2188 20 24.2188C24.5375 24.2188 28.2188 20.5375 28.2188 16C28.2188 11.4625 24.5375 7.78125 20 7.78125ZM20 21.3312C17.0563 21.3312 14.6687 18.9438 14.6687 16C14.6687 13.0563 17.0563 10.6687 20 10.6687C22.9438 10.6687 25.3312 13.0563 25.3312 16C25.3312 18.9438 22.9438 21.3312 20 21.3312Z" fill="white"/>
<path d="M30.4625 7.45635C30.4625 8.51885 29.6 9.3751 28.5438 9.3751C27.4813 9.3751 26.625 8.5126 26.625 7.45635C26.625 6.39385 27.4875 5.5376 28.5438 5.5376C29.6 5.5376 30.4625 6.4001 30.4625 7.45635Z" fill="white"/>
</g>
<defs>
<filter id="filter0_d_46_11" x="0" y="0" width="40" height="40" filterUnits="userSpaceOnUse" color-interpolation-filters="sRGB">
<feFlood flood-opacity="0" result="BackgroundImageFix"/>
<feColorMatrix in="SourceAlpha" type="matrix" values="0 0 0 0 0 0 0 0 0 0 0 0 0 0 0 0 0 0 127 0" result="hardAlpha"/>
<feOffset dy="4"/>
<feGaussianBlur stdDeviation="2"/>
<feComposite in2="hardAlpha" operator="out"/>
<feColorMatrix type="matrix" values="0 0 0 0 0 0 0 0 0 0 0 0 0 0 0 0 0 0 0.25 0"/>
<feBlend mode="normal" in2="BackgroundImageFix" result="effect1_dropShadow_46_11"/>
<feBlend mode="normal" in="SourceGraphic" in2="effect1_dropShadow_46_11" result="shape"/>
</filter>
</defs>
</svg>
