<svg width="37" height="37" viewBox="0 0 37 37" fill="none" xmlns="http://www.w3.org/2000/svg">
<path d="M29.4104 7.5975C26.5028 4.68837 22.6363 3.08504 18.5169 3.0835C10.0285 3.0835 3.12031 9.98862 3.11723 18.477C3.11569 21.1904 3.82485 23.839 5.17227 26.173L3.08331 33.9168L11.1509 32.0098C13.4001 33.237 15.9316 33.8829 18.5092 33.8845H18.5154C27.0023 33.8845 33.9105 26.9778 33.9151 18.4909C33.9182 14.3762 32.3179 10.5082 29.4104 7.5975ZM26.0511 23.9792C25.7304 24.878 24.1594 25.7445 23.4534 25.8077C22.7473 25.8724 22.0859 26.1268 18.8361 24.8457C14.9249 23.304 12.4551 19.2941 12.2639 19.0382C12.0712 18.7807 10.693 16.9523 10.693 15.0592C10.693 13.166 11.6874 12.2348 12.0404 11.851C12.3934 11.4655 12.8097 11.37 13.0671 11.37C13.3231 11.37 13.5805 11.37 13.8041 11.3792C14.0785 11.39 14.3822 11.4039 14.6705 12.0437C15.0127 12.8052 15.7604 14.7077 15.856 14.9004C15.9516 15.0931 16.0164 15.3182 15.8884 15.5741C15.7604 15.83 15.6957 15.9903 15.5045 16.2154C15.3118 16.4405 15.1006 16.7165 14.9279 16.8891C14.7352 17.0803 14.5348 17.29 14.7584 17.6738C14.9834 18.0592 15.7543 19.3188 16.8982 20.3378C18.3689 21.6482 19.6069 22.0537 19.9923 22.248C20.3777 22.4407 20.6013 22.4083 20.8264 22.1508C21.0514 21.8949 21.7884 21.0285 22.0443 20.6431C22.3002 20.2577 22.5576 20.3224 22.9107 20.4504C23.2637 20.5783 25.1554 21.5095 25.5392 21.7022C25.9246 21.8949 26.1806 21.9905 26.2761 22.1508C26.3717 22.3096 26.3717 23.0805 26.0511 23.9792Z" fill="white"/>
</svg>
